<svg version="1.1" xmlns="http://www.w3.org/2000/svg" xmlns:xlink="http://www.w3.org/1999/xlink" class="thumbnail-icon"
     viewBox="-12.487090110778809 -0.0000152587890625 224.97418212890625 200.00001525878906">
    <g data-paper-data="{&quot;fillRule&quot;:&quot;evenodd&quot;,&quot;selectedEffects&quot;:{&quot;container&quot;:&quot;&quot;,&quot;transformation&quot;:&quot;&quot;,&quot;pattern&quot;:&quot;&quot;},&quot;initialText&quot;:&quot;B&quot;,&quot;isIcon&quot;:&quot;true&quot;,&quot;iconType&quot;:&quot;initial&quot;,&quot;iconStyle&quot;:&quot;standalone&quot;,&quot;rawInitialId&quot;:565,&quot;disableIconEffects&quot;:&quot;true&quot;,&quot;monogramSpecial&quot;:&quot;multisegment-rectangle&quot;,&quot;bounds&quot;:{&quot;x&quot;:65,&quot;y&quot;:159.895242339662,&quot;width&quot;:168.9663090781379,&quot;height&quot;:150.20951532067602}}">
        <path
            d="M22.71561,0h-23.95399c-6.2124,0 -11.24871,5.03631 -11.24871,11.24871v177.50258c0,6.2125 5.03631,11.24871 11.24871,11.24871h22.7657c-4.1058,-23.78002 -0.42496,-169.76695 1.18829,-200zM176.07763,200c2.08386,-9.88248 3.5072,-43.49072 4.27029,-80.62165c-1.17511,-2.93777 -9.40085,-9.98841 -16.15772,-11.75107c-10.57596,-2.35021 -9.98841,-17.92038 1.46888,-19.09548c1.17511,-0.29378 8.51952,-1.17511 14.68883,-7.05064c0,-34.814 -1.26667,-67.27608 -3.79976,-81.48116h24.69022c6.2124,0 11.24871,5.03631 11.24871,11.24871v177.50258c0,6.2125 -5.03631,11.24871 -11.24871,11.24871zM109.84152,35.35823c0,-12.92617 -19.38926,-13.51373 -19.97681,-0.29378l0.29378,31.72788c0,12.6324 19.68304,13.21995 19.68304,0.29378zM108.96019,122.31612c0,-13.21995 -19.68304,-13.51373 -19.97681,-0.58755l-0.58755,35.84075c-0.29378,12.92617 19.38926,13.21995 19.68304,0.29378z"
            fill-rule="evenodd" fill="#fb503b"></path>
    </g>
</svg>
